<?xml version="1.0" encoding="utf-8"?>
<!-- Generator: Adobe Illustrator 27.5.0, SVG Export Plug-In . SVG Version: 6.00 Build 0)  -->
<svg version="1.1" xmlns="http://www.w3.org/2000/svg" xmlns:xlink="http://www.w3.org/1999/xlink" x="0px" y="0px"
	 viewBox="0 0 500 500" style="enable-background:new 0 0 500 500;" xml:space="preserve">
<g id="BACKGROUND">
	<radialGradient id="SVGID_1_" cx="247.07" cy="249" r="462.0971" gradientUnits="userSpaceOnUse">
		<stop  offset="0" style="stop-color:#FFFFFF"/>
		<stop  offset="0.9622" style="stop-color:#BCBEC0"/>
	</radialGradient>
	<rect style="opacity:0.2;fill:url(#SVGID_1_);" width="500" height="500"/>
</g>
<g id="OBJECTS">
	<ellipse style="opacity:0.42;fill:#B7B7B7;" cx="104.776" cy="294.723" rx="37.505" ry="7.726"/>
	<path style="opacity:0.42;fill:#B7B7B7;" d="M451.919,290.753c0,4.267-16.792,7.726-37.505,7.726
		c-20.714,0-37.506-3.459-37.506-7.726s16.792-7.726,37.506-7.726C435.127,283.027,451.919,286.486,451.919,290.753z"/>
	<rect x="83.865" y="196.012" style="fill:none;" width="332.268" height="90.962"/>
	<text transform="matrix(1 0 0 1 160.8623 278.2578)" style="fill:#C66D1E; font-family:'NexaBold'; font-size:115.8405px;">404</text>
	<rect x="104.955" y="149.197" style="fill:none;" width="303.654" height="26.081"/>
	<text transform="matrix(1 0 0 1 213.7148 167.2432)" style="fill:#666666; font-family:'Poppins-Light'; font-size:24.3875px;">OOPS ... </text>
	<rect x="104.955" y="304.717" style="fill:none;" width="303.654" height="26.08"/>
	<text transform="matrix(1 0 0 1 159.502 322.7637)"><tspan x="0" y="0" style="fill:#666666; font-family:'Poppins-Light'; font-size:24.3875px;">PAGE </tspan><tspan x="67.674" y="0" style="fill:#666666; font-family:'Poppins'; font-size:24.3875px;">NOT FOUND</tspan></text>
	<g>
		<path style="fill:#E02828;" d="M50.015,240.744c0,0-2.955-1.827-3.704,0.606c-0.749,2.434-0.749,5.99,0,6.271
			c0.749,0.281,5.054,0,5.054,0S52.876,242.196,50.015,240.744z"/>
		<g>
			<path style="fill:#D67C22;" d="M123.182,242.185c0,0-6.644-4.679-8.251,2.822c0,0,1.556,4.169,2.348,11.79
				c2.77,0.565,5.497,1.221,8.163,1.95C125.441,251.692,124.889,245.244,123.182,242.185z"/>
			<path style="fill:#E28E33;" d="M127.683,288.305l-4.072-1.796c0,0,1.833-14.89,1.831-27.762c-2.666-0.729-5.393-1.385-8.163-1.95
				c0.692,6.659,0.801,15.952-1.223,27.412c0,0-2.612,7.013,0.275,9.931c2.886,2.917,5.458,1.907,9.101,3.366
				c3.644,1.459,9.752,1.795,12.216-2.356C140.114,290.997,135.077,283.928,127.683,288.305z"/>
		</g>
		<g>
			<path style="fill:#D67C22;" d="M82.89,237.454c0,0-6.645-4.913-8.251,2.963c0,0,2.024,5.704,2.629,15.985
				c2.586-0.589,5.218-1.038,7.882-1.351C85.159,247.564,84.613,240.696,82.89,237.454z"/>
			<path style="fill:#E28E33;" d="M87.391,285.877l-4.072-1.885c0,0,1.814-15.474,1.832-28.94c-2.664,0.313-5.296,0.762-7.882,1.351
				c0.388,6.602,0.193,15.085-1.504,25.175c0,0-2.611,7.363,0.275,10.427c2.886,3.064,5.458,2.003,9.102,3.534
				c3.644,1.532,9.752,1.885,12.216-2.474C99.821,288.705,94.785,281.282,87.391,285.877z"/>
		</g>
		<path style="fill:#E89442;" d="M112.287,163.02c2.808-5.054,3.931-11.23,1.685-16.845c-0.166-0.365-0.351-0.7-0.55-1.012
			c-11.322,3.92-28.101,14.373-36.424,42.208C91.156,183.722,104.038,176.426,112.287,163.02z"/>
		<path style="fill:#E28E33;" d="M129.408,138.413c0.009,0.679,0.15,1.278,0.15,1.278S129.516,139.202,129.408,138.413z"/>
		<path style="fill:#E28E33;" d="M134.113,147.069c0,0,6.537,0.533,5.733-2.244c-0.804-2.777-3.376-2.02-3.376-2.02
			s6.751-5.386,2.732-7.743c-4.018-2.356-6.59,4.965-6.59,4.965s0.321-3.366-1.768-3.535c-1.209-0.098-1.448,0.987-1.436,1.92
			c0.108,0.789,0.15,1.278,0.15,1.278s-0.141-0.599-0.15-1.278c-0.467-3.424-2.169-12.488-7.003-11.598
			c-5.947,1.094,2.813,13.97,2.813,13.97s-1.768-1.431-2.411,0.084c-0.643,1.515,2.09,1.936,2.09,1.936s-4.785,0.041-11.476,2.357
			c0.2,0.312,0.384,0.648,0.55,1.012c2.246,5.615,1.123,11.791-1.685,16.845c-8.249,13.406-21.131,20.702-35.29,24.351
			c-1.465,4.899-2.672,10.329-3.537,16.365c0,0-4.208,34.355-3.215,36.02c2.039,3.415,25.016,7.643,50.677,6.696
			c2.391-0.088,4.493-1.686,5.308-4.041l12.252-31.723c4.078-10.56,6.372-21.8,6.577-33.189
			C145.279,165.3,143.221,151.894,134.113,147.069z"/>
		<g>
			<path style="fill:#E28E33;" d="M90.837,189.079c-1.006-1.994-3.284-3.683-8.304-2.947c-7.091,1.04-12.858,10.765-15.929,17.168
				C76.035,200.396,84.724,195.882,90.837,189.079z"/>
			<path style="fill:#E28E33;" d="M69.051,209.625c3.938-6.891,11.759-12.055,20.437-12.09c0.704-0.631,1.466-1.712,2.003-3.587
				c0,0,0.477-2.626-0.654-4.869c-6.113,6.804-14.803,11.318-24.233,14.221c-1.547,3.225-2.412,5.611-2.412,5.611
				s-3.839-0.447-4.692,4.466c0,0-0.427,2.457,1.066,3.35c0,0-14.716,21.439-11.517,29.925c0,0-0.569,2.605,1.919,3.499
				c0,0,1.635,3.573,4.052,2.307c0,0-1.99,4.913,0.569,5.881c2.56,0.968,5.403,0.596,6.398-3.573
				c0.253-1.059,0.769-4.673,1.717-9.61C61.454,233.23,62.31,220.728,69.051,209.625z"/>
			<path style="fill:#D67C22;" d="M69.051,209.625c-6.741,11.103-7.597,23.605-5.346,35.53c2.785-14.494,9.311-40.411,23.947-46.741
				c0,0,0.862-0.006,1.836-0.879C80.81,197.57,72.989,202.734,69.051,209.625z"/>
		</g>
		<path style="fill:#D67C22;" d="M76.478,189.146c0,0,8.913-6.927,14.36-0.068C90.837,189.079,87.202,184.32,76.478,189.146z"/>
		<path style="fill:#EF9C56;" d="M122.405,126.815c0,0,5.604-2.354,7.078,12.468c0,0-0.928-3.137,1.361-2.79
			c2.289,0.347,1.768,3.535,1.768,3.535s1.584-6.802,6.106-5.206c4.522,1.597-0.806,6.929-2.248,7.983c0,0,3.118-0.549,3.435,2.357
			c0,0-1.753-2.848-4.245-1.585c0,0,5.642-6.812,2.527-7.44c-3.115-0.628-5.721,5.335-5.721,5.335s-0.448-4.09-1.789-3.509
			c-1.342,0.581-1.119,3.404-1.119,3.404S126.943,127.354,122.405,126.815z"/>
		<path style="fill:#E02828;" d="M67.634,246.591c-2.703-3.185-6.67-2.899-6.67-2.899c-1.545,4.307-1.264,7.906-1.264,7.906
			s-15.301,28.637-7.44,24.426c5.994-3.211,12.772-0.954,15.655,0.299c0.45,0.196,0.934,0.064,1.237-0.256
			C63.97,266.823,62.485,255.787,67.634,246.591z"/>
		<path style="fill:#ED3E3E;" d="M70.088,254.546c-0.047-3.861-1.09-6.348-2.454-7.955c-5.149,9.196-3.664,20.232,1.518,29.476
			c0.166-0.176,0.281-0.408,0.299-0.678C69.69,271.93,70.196,263.404,70.088,254.546z"/>
		<path style="fill:#181818;" d="M117.673,177.035c-0.774,1.847-0.854,3.583-0.18,3.878c0.675,0.295,1.85-0.962,2.624-2.809
			c0.774-1.847,0.854-3.584,0.179-3.879C119.622,173.931,118.447,175.188,117.673,177.035"/>
		<path style="fill:#181818;" d="M133.099,180.754c-0.632,1.9-0.58,3.638,0.115,3.881c0.696,0.244,1.771-1.099,2.404-2.999
			c0.632-1.9,0.581-3.638-0.115-3.881C134.807,177.511,133.731,178.854,133.099,180.754"/>
		<path style="fill:#181818;" d="M129.66,169.523c-0.632,1.9-0.581,3.638,0.115,3.881c0.696,0.244,1.771-1.099,2.404-2.999
			c0.632-1.9,0.581-3.638-0.115-3.882C131.368,166.281,130.292,167.624,129.66,169.523"/>
		<g>
			<path style="fill:#181818;" d="M124.563,196.82c-1.766-1.586-4.092-2.438-6.458-2.257c-0.037,0.003-0.075,0.006-0.112,0.009
				c-3.745,0.307-4.895-5.388,0.074-6.561c4.97-1.173,10.765,1.517,12.231,5.535C131.582,197.061,127.998,199.907,124.563,196.82z"
				/>
			<g>
				<defs>
					<path id="SVGID_00000172435585876127965530000000399619859767137928_" d="M124.563,196.82
						c-1.766-1.586-4.092-2.438-6.458-2.257c-0.037,0.003-0.075,0.006-0.112,0.009c-3.745,0.307-4.895-5.388,0.074-6.561
						c4.97-1.173,10.765,1.517,12.231,5.535C131.582,197.061,127.998,199.907,124.563,196.82z"/>
				</defs>
				<clipPath id="SVGID_00000083768876629158219850000003800792911363504030_">
					<use xlink:href="#SVGID_00000172435585876127965530000000399619859767137928_"  style="overflow:visible;"/>
				</clipPath>
				<path style="clip-path:url(#SVGID_00000083768876629158219850000003800792911363504030_);fill:#D04642;" d="M128.175,198.274
					c-0.667,1.71-3.94,2.028-7.31,0.712c-3.37-1.316-5.562-3.768-4.894-5.477c0.667-1.709,3.94-2.028,7.311-0.712
					C126.651,194.113,128.842,196.565,128.175,198.274z"/>
			</g>
		</g>
		<path style="fill:#E28E33;" d="M148.816,209.096c3.915-16.381-7.081-23.141-7.081-23.141l-1.187,3.423l-5.268,15.199
			c-1.843,10.84-8.367,5.161-8.367,5.161c-0.533-1.675-1.173,0-1.173,0s0-6.588,0-10.887c0-4.299-1.066-6.086-3.092-4.969
			c-2.026,1.117-1.386,9.938-1.386,9.938c-1.44-2.177-2.613,0.056-2.613,0.056s-0.426-0.949-1.439-0.837
			c-1.013,0.112-1.066,1.229-1.066,1.229c-0.32-0.559-1.706-2.345-2.986,0c-1.28,2.345,2.239,15.074,8.008,18.871
			c1.143,0.752,2.759,1.308,4.643,1.592C135.311,222.593,143.838,217.499,148.816,209.096z"/>
		<path style="fill:#D67C22;" d="M125.808,224.73c5.977,0.901,14.677-0.956,19.733-8.169c1.4-1.997,2.527-4.395,3.231-7.269
			c0.017-0.067,0.028-0.13,0.043-0.197C143.838,217.499,135.311,222.593,125.808,224.73z"/>
		<path style="fill:#D67C22;" d="M136.643,211.871c0,0-5.686,1.902-10.903-2.132c0,0,1.885-16.242-2.134-16.174
			c0,0-3.459-0.77-2.382,9.616c0,0-1.619-1.038-2.576,0.696c0,0-1.729-1.991-2.483,0.223c0,0-2.453-2.243-3.271,0.564
			c0,0-3.133,16.456,14.519,20.283c0,0-14.634-3.542-14.073-19.896c0,0,0.14-0.982,1.193-1.035c1.053-0.053,1.649,1.176,1.649,1.176
			s0.351-1.615,1.158-1.421c0.807,0.193,1.369,1.316,1.369,1.316s0.281-1.825,1.492-1.526c1.21,0.298,1.246,1.702,1.246,1.702
			s-0.631-11.686,2.036-11.265c2.667,0.421,1.86,16.635,1.86,16.635S131.449,215.731,136.643,211.871z"/>
		<path style="fill:#D67C22;" d="M144.132,189.079c0,0-2.085,12.124-6.999,22.792C137.134,211.871,143.971,200.96,144.132,189.079z"
			/>
		<path style="fill:#C91F1F;" d="M69.472,275.818c0,3.522-4.355,6.379-9.729,6.379c-5.374,0-9.729-2.857-9.729-6.379
			c0-3.523,4.355-6.379,9.729-6.379C65.117,269.44,69.472,272.295,69.472,275.818z"/>
		<path style="fill:#EAC71B;" d="M58.008,276.063v13.203l3.02-12.763c0.109-0.463-0.104-0.944-0.525-1.165
			c-0.404-0.211-0.959-0.395-1.594-0.313C58.393,275.092,58.008,275.542,58.008,276.063z"/>
		<path style="fill:#EAC71B;" d="M60.675,287.324c0,1.357-1.1,2.456-2.457,2.456c-1.356,0-2.457-1.1-2.457-2.456
			c0-1.357,1.1-2.457,2.457-2.457C59.576,284.867,60.675,285.967,60.675,287.324z"/>
	</g>
	<g>
		<path style="fill:#E89442;" d="M366.844,172.04c-2.637-1.972-5.837-3.551-9.687-4.205c-7.837-1.331-13.189,1.314-16.487,4.089
			C349.388,172.742,358.142,172.896,366.844,172.04z"/>
		<path style="fill:#E28E33;" d="M366.844,172.04c-8.702,0.857-17.456,0.703-26.174-0.115c-2.918,2.456-4.228,5.015-4.228,5.015
			s-7.061,4.877-6.781,7.014c0.278,2.137,1.579,1.394,1.579,1.394c0,2.09,1.114,1.672,1.114,1.672s-1.625,8.221,0.604,8.314
			c2.23,0.093,3.879-6.631,3.879-6.631s-0.087,1.672,2.596,1.167c2.682-0.505,2.398-6.613,2.398-6.613
			c2.787-7.896,10.962-6.921,10.962-6.921c7.637,0.667,13.393,7.565,17.459,15.146c1.506-4.346,2.465-8.868,2.51-13.372
			C371.237,176.023,369.281,173.863,366.844,172.04z"/>
		<path style="fill:#D67C22;" d="M377.223,186.414c0,0-1.316-3.99-4.463-8.304c-0.045,4.503-1.004,9.025-2.51,13.372
			c5.283,9.849,7.716,20.851,7.716,20.851C379.266,196.354,377.223,186.414,377.223,186.414z"/>
		<path style="fill:#D67C22;" d="M435.756,185.023c0,0-3.158,8.12,0.743,17.967c0,0,1.268,0.161,2.998,1.017
			c0.87-5.351,2.227-10.609,4.006-15.77C441.272,186.87,438.709,185.77,435.756,185.023z"/>
		<path style="fill:#E89442;" d="M446.633,190.517c2.041,11.301,5.341,22.933,10.827,33.353
			C457.885,213.304,456.374,198.837,446.633,190.517z"/>
		<path style="fill:#E28E33;" d="M446.633,190.517c-0.962-0.822-2-1.588-3.13-2.28c-1.779,5.161-3.136,10.419-4.006,15.77
			c4.727,2.339,12.91,9.874,8.149,33.54c0,0-4.855,3.716-4.854,6.642c0.001,2.926,1.603,3.692,1.603,3.692s-1.255,2.926,1.254,2.926
			c2.508,0,4.599,0.558,5.295,0.906c0.696,0.348,2.508-0.488,3.483,0c0.976,0.487,3.274,0.487,4.111-0.279
			c0.836-0.766,0.278-11.357-2.648-14.562c0,0,1.269-5.523,1.569-13.003C451.974,213.45,448.674,201.818,446.633,190.517z"/>
		<g>
			<g>
				<path style="fill:#E28E33;" d="M394.058,283.561c0,0-1.189-1.968-2.333-0.732c0,0-8.371-5.443-12.351,3.614
					c-3.98,9.057,13.86,9.469,18.252,5.215c4.392-4.255,5.764-4.392,5.764-4.392s1.784-2.882,0-4.117
					c-1.32-0.914-4.897-14.39-5.664-28.788c-2.473,0.264-4.927,0.619-7.355,1.095L394.058,283.561z"/>
				<path style="fill:#D67C22;" d="M398.175,239.372c0,0-8.097-7.136-10.293-2.882l2.488,18.966
					c2.429-0.476,4.883-0.831,7.355-1.095C397.457,249.311,397.533,244.147,398.175,239.372z"/>
			</g>
			<g>
				<path style="fill:#E28E33;" d="M425.153,279.41c0,0,1.19-1.967,2.333-0.731c0,0,8.371-5.443,12.352,3.614
					c3.979,9.057-13.861,9.469-18.252,5.215c-4.392-4.255-5.765-4.392-5.765-4.392s-1.784-2.882,0-4.117
					c1.321-0.914,4.897-14.39,5.664-28.789c2.474,0.264,4.927,0.62,7.355,1.095L425.153,279.41z"/>
				<path style="fill:#D67C22;" d="M421.036,235.221c0,0,8.098-7.136,10.293-2.882l-2.488,18.966
					c-2.429-0.476-4.882-0.832-7.355-1.095C421.754,245.16,421.678,239.997,421.036,235.221z"/>
			</g>
			<path style="fill:#E28E33;" d="M398.696,135.735c0.11,0.271,0.216,0.43,0.216,0.43S398.838,136.01,398.696,135.735z"/>
			<path style="fill:#E89442;" d="M431.103,174.547c2.179,1.341,4.405,2.54,6.676,3.618c-1.857-13.958-6.102-27.216-14.776-35.018
				c-1.632-1.467-3.425-2.734-5.383-3.784C413.371,151.259,420.348,168.094,431.103,174.547z"/>
			<path style="fill:#E28E33;" d="M431.103,174.547c-10.756-6.454-17.732-23.288-13.483-35.184c-1.54-0.827-3.181-1.523-4.939-2.056
				c0,0,13.678-13.083,5.718-18.572c-7.96-5.489-12.9,16.056-12.9,16.056s-2.47-5.489-5.352-3.294
				c-2.154,1.641-1.778,3.434-1.451,4.236c0.142,0.275,0.216,0.43,0.216,0.43s-0.105-0.159-0.216-0.43
				c-1.378-2.691-9.105-17.003-15.703-13.019c-7.273,4.391,10.017,17.429,10.017,17.429s-4.343,3.142-8.787,11.202
				c-7.144,12.954-14.549,38.615-4.608,84.367c11.485,2.495,23.631,2.397,35.778-0.302c9.791-2.176,17.434-8.342,22.67-16.333
				c0.982-10.711,1.675-26.201-0.284-40.912C435.509,177.087,433.282,175.888,431.103,174.547z"/>
			<path style="fill:#D67C22;" d="M415.394,235.411c-12.147,2.699-24.293,2.797-35.778,0.302c0.329,1.515,0.677,3.052,1.045,4.612
				c0,0,7.96,1.647,28.956,0c20.997-1.646,26.761-7.548,26.761-7.548s0.928-5.424,1.686-13.7
				C432.827,227.069,425.185,233.235,415.394,235.411z"/>
			<path style="fill:#181818;" d="M404.618,162.264c0.068,1.718,0.636,3.099,1.267,3.084c0.633-0.015,1.091-1.42,1.023-3.138
				c-0.067-1.718-0.636-3.099-1.269-3.084C405.009,159.142,404.551,160.546,404.618,162.264"/>
			<path style="fill:#181818;" d="M395.537,174.206c0.067,1.718,0.636,3.099,1.268,3.084c0.633-0.015,1.091-1.42,1.023-3.138
				c-0.068-1.718-0.636-3.099-1.268-3.084C395.928,171.083,395.47,172.488,395.537,174.206"/>
			<path style="fill:#181818;" d="M415.31,171.068c-0.632,0.015-1.09,1.42-1.023,3.138c0.067,1.718,0.636,3.099,1.268,3.084
				c0.633-0.015,1.091-1.42,1.022-3.138C416.51,172.434,415.942,171.053,415.31,171.068z"/>
			<g>
				<path style="fill:#BA6315;" d="M398.175,186.284c0,0,7.333-5.061,17.258-1.085C415.433,185.199,406.027,179.415,398.175,186.284
					z"/>
				<path style="fill:#BA6315;" d="M396.683,184.988c0,0,2.277,0.201,2.117,3.174C398.8,188.162,398.422,186.113,396.683,184.988z"
					/>
				<path style="fill:#BA6315;" d="M415.031,187.369c0,0,0.377-2.049,2.117-3.174C417.148,184.194,414.87,184.395,415.031,187.369z"
					/>
				<path style="fill:#BA6315;" d="M403.5,187.369c0,0,3.215-1.275,6.831,0C410.331,187.369,406.875,185.048,403.5,187.369z"/>
			</g>
			<path style="fill:#EF9C56;" d="M382.993,122.716c0,0,7.032-5.643,15.919,13.449C398.912,136.165,391.815,122.84,382.993,122.716z
				"/>
			<path style="fill:#EF9C56;" d="M419.92,127.424c1.854-3.38,1.319-10.618-4.766-9.521c-6.084,1.098-9.655,16.889-9.655,16.889
				c-2.48-4.523-4.208-4.697-6.073-2.643c-1.865,2.055-0.514,4.015-0.514,4.015c-0.028-2.579,1.897-3.328,1.897-3.328
				c3.748-0.329,5.123,6.328,5.123,6.328s3.978-18.321,9.341-19.587C420.637,118.313,419.92,127.424,419.92,127.424z"/>
		</g>
	</g>
	<g>
		<path style="fill:#E28E33;" d="M302.738,380.875H197.262c-9.557,0-17.376-7.818-17.376-17.376l0,0
			c0-9.558,7.819-17.376,17.376-17.376h105.476c9.557,0,17.376,7.818,17.376,17.376l0,0
			C320.114,373.057,312.295,380.875,302.738,380.875z"/>
		<rect x="188.269" y="356.335" style="fill:none;" width="123.462" height="22.253"/>
		<text transform="matrix(1 0 0 1 194.1045 365.3584)" style="fill:#FFFFFF; font-family:'Poppins-Light'; font-size:12.1937px;">BRING ME TO HOME</text>
		
			<line style="fill:none;stroke:#FFFFFF;stroke-width:0.5;stroke-miterlimit:10;" x1="194.214" y1="370.511" x2="305.177" y2="370.511"/>
	</g>
</g>
<g id="DESIGNED_BY_FREEPIK">
	<g>
		<g>
			<g>
				<path style="fill:#666666;" d="M180.308,480.465v-0.161c-0.218,0.249-0.432,0.452-0.644,0.608
					c-0.212,0.156-0.441,0.275-0.689,0.356c-0.247,0.082-0.517,0.122-0.81,0.122c-0.388,0-0.747-0.082-1.078-0.246
					c-0.33-0.164-0.616-0.399-0.857-0.704c-0.242-0.305-0.425-0.662-0.549-1.074c-0.124-0.412-0.187-0.856-0.187-1.335
					c0-1.014,0.247-1.804,0.742-2.369c0.495-0.565,1.145-0.849,1.953-0.849c0.467,0,0.861,0.08,1.181,0.239
					c0.321,0.161,0.633,0.408,0.938,0.739V473.4c0-0.333,0.066-0.584,0.199-0.754c0.132-0.17,0.321-0.255,0.566-0.255
					s0.434,0.078,0.567,0.234c0.133,0.156,0.199,0.386,0.199,0.691v7.147c0,0.309-0.071,0.54-0.213,0.694
					c-0.143,0.153-0.326,0.231-0.552,0.231c-0.222,0-0.404-0.08-0.549-0.24C180.38,480.989,180.308,480.761,180.308,480.465z
					 M177.12,478.084c0,0.439,0.068,0.813,0.205,1.122c0.137,0.309,0.323,0.541,0.561,0.697c0.237,0.156,0.497,0.235,0.777,0.235
					c0.285,0,0.545-0.074,0.781-0.224c0.235-0.147,0.423-0.376,0.564-0.682c0.141-0.307,0.21-0.69,0.21-1.149
					c0-0.432-0.07-0.803-0.21-1.114c-0.141-0.31-0.33-0.547-0.57-0.712c-0.24-0.163-0.502-0.245-0.787-0.245
					c-0.296,0-0.562,0.084-0.795,0.252c-0.233,0.168-0.415,0.409-0.543,0.724C177.184,477.304,177.12,477.669,177.12,478.084z"/>
				<path style="fill:#666666;" d="M187.454,478.494h-3.169c0.004,0.367,0.078,0.692,0.223,0.973
					c0.144,0.282,0.337,0.493,0.576,0.636c0.239,0.143,0.504,0.213,0.793,0.213c0.194,0,0.371-0.021,0.531-0.067
					c0.161-0.046,0.315-0.116,0.466-0.214c0.15-0.097,0.289-0.201,0.416-0.312c0.126-0.111,0.29-0.262,0.492-0.452
					c0.083-0.07,0.202-0.106,0.357-0.106c0.166,0,0.3,0.046,0.403,0.137c0.103,0.092,0.155,0.22,0.155,0.386
					c0,0.147-0.058,0.317-0.172,0.514c-0.116,0.196-0.288,0.384-0.519,0.564c-0.232,0.18-0.522,0.328-0.873,0.447
					c-0.35,0.119-0.753,0.179-1.208,0.179c-1.041,0-1.85-0.298-2.428-0.891c-0.578-0.594-0.866-1.399-0.866-2.416
					c0-0.479,0.071-0.923,0.213-1.332c0.143-0.41,0.351-0.762,0.623-1.055c0.273-0.293,0.609-0.517,1.009-0.674
					c0.399-0.156,0.843-0.233,1.33-0.233c0.633,0,1.176,0.133,1.629,0.4c0.454,0.267,0.793,0.612,1.019,1.035
					c0.225,0.424,0.338,0.855,0.338,1.294c0,0.408-0.117,0.672-0.35,0.794C188.206,478.434,187.877,478.494,187.454,478.494z
					 M184.284,477.574h2.939c-0.039-0.555-0.19-0.97-0.448-1.244c-0.26-0.275-0.6-0.413-1.024-0.413
					c-0.404,0-0.735,0.14-0.994,0.419C184.497,476.614,184.34,477.027,184.284,477.574z"/>
				<path style="fill:#666666;" d="M194.838,479.271c0,0.447-0.108,0.831-0.327,1.149c-0.217,0.318-0.538,0.561-0.964,0.725
					c-0.425,0.164-0.943,0.246-1.552,0.246c-0.581,0-1.08-0.089-1.496-0.268c-0.415-0.178-0.722-0.401-0.919-0.667
					c-0.198-0.268-0.297-0.535-0.297-0.806c0-0.178,0.063-0.33,0.191-0.456c0.126-0.126,0.287-0.189,0.481-0.189
					c0.17,0,0.3,0.041,0.391,0.124c0.091,0.083,0.179,0.2,0.261,0.35c0.167,0.29,0.366,0.505,0.597,0.648
					c0.231,0.143,0.547,0.214,0.947,0.214c0.324,0,0.59-0.072,0.798-0.217c0.207-0.145,0.311-0.309,0.311-0.496
					c0-0.285-0.107-0.492-0.323-0.622c-0.216-0.131-0.571-0.256-1.065-0.375c-0.558-0.138-1.012-0.284-1.362-0.437
					c-0.351-0.151-0.63-0.353-0.84-0.602c-0.21-0.25-0.314-0.557-0.314-0.921c0-0.324,0.097-0.631,0.291-0.92
					c0.194-0.288,0.48-0.519,0.858-0.691c0.377-0.173,0.833-0.259,1.368-0.259c0.419,0,0.796,0.044,1.13,0.132
					c0.335,0.086,0.614,0.203,0.837,0.35c0.224,0.147,0.394,0.309,0.51,0.486c0.117,0.178,0.175,0.353,0.175,0.522
					c0,0.187-0.062,0.339-0.186,0.458c-0.124,0.117-0.301,0.178-0.531,0.178c-0.166,0-0.308-0.048-0.424-0.144
					c-0.117-0.095-0.25-0.236-0.401-0.427c-0.123-0.157-0.266-0.284-0.433-0.38c-0.166-0.095-0.392-0.143-0.677-0.143
					c-0.293,0-0.536,0.063-0.73,0.188c-0.193,0.124-0.291,0.279-0.291,0.466c0,0.17,0.071,0.31,0.213,0.418
					c0.143,0.109,0.335,0.2,0.576,0.271c0.242,0.071,0.573,0.157,0.997,0.261c0.502,0.123,0.913,0.27,1.231,0.44
					c0.318,0.17,0.56,0.371,0.725,0.603C194.756,478.71,194.838,478.974,194.838,479.271z"/>
				<path style="fill:#666666;" d="M196.494,474.048c-0.226,0-0.419-0.069-0.579-0.208c-0.16-0.138-0.241-0.334-0.241-0.588
					c0-0.23,0.082-0.418,0.247-0.567c0.164-0.148,0.355-0.223,0.573-0.223c0.21,0,0.395,0.067,0.558,0.202
					c0.163,0.135,0.244,0.33,0.244,0.588c0,0.25-0.08,0.444-0.238,0.585C196.899,473.978,196.711,474.048,196.494,474.048z
					 M197.295,475.722v4.683c0,0.325-0.077,0.571-0.232,0.737c-0.155,0.166-0.35,0.249-0.587,0.249
					c-0.238,0-0.431-0.085-0.579-0.255c-0.149-0.171-0.223-0.414-0.223-0.731v-4.636c0-0.32,0.074-0.562,0.223-0.724
					c0.148-0.163,0.341-0.244,0.579-0.244c0.237,0,0.433,0.081,0.587,0.244C197.218,475.207,197.295,475.433,197.295,475.722z"/>
				<path style="fill:#666666;" d="M204.395,475.989v4.707c0,0.538-0.058,1.001-0.173,1.39c-0.114,0.387-0.298,0.708-0.552,0.961
					c-0.253,0.253-0.585,0.441-0.994,0.564c-0.41,0.123-0.919,0.184-1.529,0.184c-0.558,0-1.057-0.078-1.496-0.234
					c-0.439-0.157-0.777-0.358-1.015-0.605c-0.237-0.248-0.356-0.502-0.356-0.764c0-0.197,0.067-0.359,0.203-0.483
					c0.134-0.125,0.297-0.186,0.486-0.186c0.237,0,0.445,0.104,0.624,0.313c0.086,0.107,0.177,0.216,0.27,0.324
					c0.093,0.109,0.197,0.202,0.309,0.28c0.113,0.076,0.249,0.133,0.406,0.171c0.159,0.037,0.341,0.057,0.546,0.057
					c0.419,0,0.745-0.059,0.977-0.176c0.231-0.116,0.394-0.28,0.487-0.49c0.093-0.208,0.147-0.433,0.163-0.673
					c0.016-0.24,0.027-0.624,0.035-1.155c-0.25,0.349-0.537,0.614-0.864,0.797c-0.326,0.182-0.715,0.272-1.166,0.272
					c-0.543,0-1.016-0.139-1.422-0.416c-0.406-0.276-0.717-0.664-0.935-1.163c-0.218-0.499-0.326-1.074-0.326-1.728
					c0-0.486,0.065-0.926,0.198-1.317c0.133-0.393,0.322-0.723,0.567-0.992c0.246-0.269,0.528-0.472,0.849-0.608
					c0.321-0.136,0.673-0.204,1.057-0.204c0.459,0,0.857,0.088,1.193,0.264c0.336,0.177,0.649,0.453,0.938,0.829v-0.221
					c0-0.281,0.069-0.498,0.208-0.653c0.139-0.153,0.317-0.231,0.535-0.231c0.313,0,0.52,0.102,0.623,0.306
					C204.343,475.31,204.395,475.604,204.395,475.989z M199.699,478.043c0,0.656,0.143,1.153,0.43,1.489
					c0.287,0.337,0.658,0.505,1.113,0.505c0.269,0,0.523-0.072,0.762-0.217c0.24-0.145,0.435-0.362,0.585-0.652
					c0.15-0.292,0.226-0.645,0.226-1.06c0-0.661-0.146-1.176-0.437-1.543c-0.291-0.368-0.674-0.553-1.149-0.553
					c-0.463,0-0.834,0.177-1.113,0.528C199.838,476.893,199.699,477.394,199.699,478.043z"/>
				<path style="fill:#666666;" d="M206.97,475.697v0.196c0.285-0.376,0.597-0.651,0.935-0.828c0.338-0.176,0.727-0.265,1.166-0.265
					c0.427,0,0.809,0.094,1.146,0.28c0.336,0.186,0.588,0.449,0.754,0.788c0.107,0.198,0.176,0.413,0.208,0.642
					c0.032,0.23,0.048,0.522,0.048,0.879v3.015c0,0.325-0.074,0.571-0.223,0.737c-0.148,0.166-0.341,0.249-0.579,0.249
					c-0.242,0-0.438-0.085-0.588-0.255c-0.15-0.171-0.225-0.414-0.225-0.731v-2.7c0-0.534-0.075-0.943-0.223-1.226
					c-0.148-0.283-0.444-0.425-0.888-0.425c-0.289,0-0.552,0.086-0.789,0.258c-0.237,0.173-0.412,0.409-0.522,0.71
					c-0.079,0.242-0.119,0.692-0.119,1.353v2.029c0,0.329-0.077,0.576-0.229,0.74c-0.152,0.164-0.349,0.246-0.59,0.246
					c-0.234,0-0.426-0.085-0.576-0.255c-0.15-0.171-0.226-0.414-0.226-0.731v-4.683c0-0.309,0.067-0.54,0.202-0.692
					c0.135-0.152,0.319-0.228,0.552-0.228c0.143,0,0.271,0.034,0.387,0.102c0.114,0.067,0.207,0.169,0.276,0.302
					C206.936,475.34,206.97,475.504,206.97,475.697z"/>
				<path style="fill:#666666;" d="M216.829,478.494h-3.17c0.004,0.367,0.078,0.692,0.223,0.973
					c0.144,0.282,0.336,0.493,0.576,0.636c0.239,0.143,0.503,0.213,0.792,0.213c0.194,0,0.371-0.021,0.532-0.067
					c0.16-0.046,0.315-0.116,0.466-0.214c0.15-0.097,0.288-0.201,0.416-0.312c0.126-0.111,0.29-0.262,0.492-0.452
					c0.083-0.07,0.202-0.106,0.356-0.106c0.167,0,0.301,0.046,0.404,0.137c0.103,0.092,0.154,0.22,0.154,0.386
					c0,0.147-0.057,0.317-0.172,0.514c-0.115,0.196-0.288,0.384-0.52,0.564c-0.231,0.18-0.522,0.328-0.872,0.447
					c-0.351,0.119-0.753,0.179-1.208,0.179c-1.041,0-1.85-0.298-2.428-0.891c-0.577-0.594-0.866-1.399-0.866-2.416
					c0-0.479,0.071-0.923,0.214-1.332c0.142-0.41,0.351-0.762,0.624-1.055c0.273-0.293,0.609-0.517,1.009-0.674
					c0.399-0.156,0.843-0.233,1.33-0.233c0.633,0,1.175,0.133,1.629,0.4c0.453,0.267,0.793,0.612,1.019,1.035
					c0.225,0.424,0.338,0.855,0.338,1.294c0,0.408-0.117,0.672-0.35,0.794C217.581,478.434,217.253,478.494,216.829,478.494z
					 M213.659,477.574h2.939c-0.04-0.555-0.189-0.97-0.448-1.244c-0.259-0.275-0.6-0.413-1.023-0.413
					c-0.404,0-0.736,0.14-0.995,0.419C213.872,476.614,213.715,477.027,213.659,477.574z"/>
				<path style="fill:#666666;" d="M223.435,480.465v-0.161c-0.218,0.249-0.432,0.452-0.644,0.608
					c-0.211,0.156-0.441,0.275-0.689,0.356c-0.246,0.082-0.517,0.122-0.809,0.122c-0.389,0-0.748-0.082-1.078-0.246
					c-0.331-0.164-0.617-0.399-0.858-0.704c-0.242-0.305-0.425-0.662-0.549-1.074c-0.124-0.412-0.187-0.856-0.187-1.335
					c0-1.014,0.247-1.804,0.742-2.369c0.495-0.565,1.146-0.849,1.953-0.849c0.467,0,0.861,0.08,1.181,0.239
					c0.32,0.161,0.633,0.408,0.938,0.739V473.4c0-0.333,0.066-0.584,0.199-0.754c0.132-0.17,0.322-0.255,0.567-0.255
					c0.245,0,0.434,0.078,0.567,0.234c0.132,0.156,0.199,0.386,0.199,0.691v7.147c0,0.309-0.071,0.54-0.214,0.694
					c-0.143,0.153-0.326,0.231-0.552,0.231c-0.221,0-0.404-0.08-0.549-0.24C223.507,480.989,223.435,480.761,223.435,480.465z
					 M220.248,478.084c0,0.439,0.068,0.813,0.204,1.122c0.137,0.309,0.324,0.541,0.562,0.697c0.237,0.156,0.497,0.235,0.777,0.235
					c0.285,0,0.545-0.074,0.78-0.224c0.236-0.147,0.424-0.376,0.564-0.682c0.141-0.307,0.211-0.69,0.211-1.149
					c0-0.432-0.07-0.803-0.211-1.114c-0.14-0.31-0.33-0.547-0.57-0.712c-0.24-0.163-0.501-0.245-0.787-0.245
					c-0.296,0-0.561,0.084-0.795,0.252c-0.233,0.168-0.414,0.409-0.543,0.724C220.311,477.304,220.248,477.669,220.248,478.084z"/>
				<path style="fill:#666666;" d="M230.059,473.317v2.475c0.304-0.315,0.615-0.559,0.932-0.727
					c0.317-0.168,0.709-0.252,1.176-0.252c0.538,0,1.01,0.127,1.416,0.382c0.405,0.257,0.72,0.626,0.943,1.111
					c0.224,0.483,0.336,1.06,0.336,1.725c0,0.49-0.063,0.939-0.187,1.35c-0.125,0.41-0.306,0.765-0.544,1.065
					c-0.238,0.301-0.525,0.534-0.863,0.698c-0.339,0.164-0.712,0.246-1.119,0.246c-0.25,0-0.484-0.029-0.704-0.089
					c-0.22-0.06-0.407-0.137-0.561-0.235c-0.154-0.096-0.286-0.196-0.395-0.299c-0.109-0.103-0.253-0.258-0.431-0.464v0.161
					c0,0.305-0.073,0.535-0.22,0.691c-0.146,0.156-0.332,0.234-0.558,0.234c-0.23,0-0.413-0.078-0.549-0.234
					c-0.137-0.156-0.205-0.387-0.205-0.691v-7.077c0-0.328,0.066-0.576,0.199-0.744c0.133-0.168,0.318-0.252,0.555-0.252
					c0.25,0,0.441,0.08,0.576,0.239C229.992,472.792,230.059,473.02,230.059,473.317z M230.136,478.132
					c0,0.646,0.147,1.14,0.442,1.486c0.294,0.347,0.682,0.521,1.16,0.521c0.408,0,0.759-0.177,1.054-0.531
					c0.295-0.355,0.442-0.862,0.442-1.523c0-0.427-0.061-0.796-0.184-1.104c-0.123-0.31-0.296-0.548-0.522-0.716
					c-0.226-0.168-0.489-0.252-0.79-0.252c-0.309,0-0.584,0.084-0.825,0.252c-0.241,0.168-0.431,0.411-0.57,0.73
					C230.206,477.313,230.136,477.692,230.136,478.132z"/>
				<path style="fill:#666666;" d="M236.962,481.593l0.148-0.363l-1.995-5.021c-0.122-0.288-0.184-0.499-0.184-0.629
					c0-0.139,0.036-0.268,0.107-0.386c0.071-0.119,0.169-0.214,0.293-0.285c0.125-0.071,0.255-0.107,0.389-0.107
					c0.233,0,0.409,0.074,0.529,0.223c0.119,0.148,0.223,0.361,0.314,0.639l1.372,3.988l1.3-3.71c0.103-0.3,0.195-0.536,0.279-0.706
					c0.083-0.17,0.171-0.285,0.264-0.344c0.093-0.06,0.225-0.09,0.395-0.09c0.124,0,0.241,0.032,0.354,0.099
					c0.113,0.065,0.2,0.153,0.261,0.265c0.061,0.11,0.093,0.227,0.093,0.35c-0.017,0.074-0.041,0.182-0.078,0.32
					c-0.036,0.139-0.079,0.28-0.13,0.422l-2.113,5.532c-0.183,0.487-0.36,0.868-0.535,1.146c-0.174,0.277-0.404,0.49-0.691,0.639
					c-0.287,0.148-0.674,0.223-1.161,0.223c-0.475,0-0.831-0.052-1.068-0.154c-0.238-0.103-0.357-0.292-0.357-0.564
					c0-0.186,0.056-0.33,0.17-0.431c0.112-0.101,0.28-0.151,0.501-0.151c0.087,0,0.172,0.012,0.255,0.036
					c0.103,0.023,0.192,0.036,0.267,0.036c0.186,0,0.333-0.028,0.439-0.084c0.106-0.055,0.203-0.15,0.288-0.288
					C236.753,482.059,236.852,481.857,236.962,481.593z"/>
			</g>
			<g>
				<path style="fill:#666666;" d="M260.439,474.941h0.387v-0.486c0-0.509,0.061-0.911,0.191-1.211
					c0.127-0.299,0.347-0.517,0.654-0.653c0.307-0.136,0.727-0.204,1.26-0.204c0.95,0,1.421,0.23,1.421,0.697
					c0,0.148-0.05,0.277-0.15,0.384c-0.097,0.105-0.214,0.16-0.349,0.16c-0.063,0-0.174-0.012-0.329-0.037
					c-0.148-0.02-0.283-0.035-0.39-0.035c-0.292,0-0.479,0.088-0.565,0.26c-0.08,0.172-0.122,0.418-0.122,0.74v0.386h0.396
					c0.619,0,0.926,0.186,0.926,0.56c0,0.262-0.08,0.432-0.246,0.503c-0.163,0.071-0.39,0.107-0.68,0.107h-0.396v4.294
					c0,0.319-0.075,0.563-0.232,0.73c-0.15,0.17-0.346,0.254-0.589,0.254c-0.23,0-0.419-0.084-0.573-0.254
					c-0.153-0.168-0.227-0.411-0.227-0.73v-4.294h-0.446c-0.243,0-0.427-0.053-0.559-0.164c-0.131-0.107-0.196-0.25-0.196-0.424
					C259.625,475.134,259.896,474.941,260.439,474.941"/>
				<path style="fill:#666666;" d="M265.745,479.051v1.354c0,0.327-0.083,0.574-0.233,0.737c-0.154,0.166-0.35,0.247-0.586,0.247
					c-0.239,0-0.43-0.082-0.58-0.251c-0.148-0.164-0.225-0.41-0.225-0.733v-4.514c0-0.729,0.263-1.094,0.788-1.094
					c0.271,0,0.464,0.084,0.583,0.255c0.119,0.171,0.185,0.422,0.198,0.756c0.192-0.334,0.391-0.585,0.593-0.756
					c0.208-0.171,0.477-0.255,0.818-0.255c0.344,0,0.671,0.084,0.991,0.255c0.322,0.171,0.481,0.398,0.481,0.679
					c0,0.196-0.068,0.362-0.203,0.488c-0.138,0.131-0.284,0.194-0.441,0.194c-0.063,0-0.207-0.039-0.433-0.112
					c-0.229-0.07-0.431-0.107-0.602-0.107c-0.238,0-0.433,0.064-0.583,0.186c-0.151,0.128-0.269,0.31-0.353,0.555
					c-0.081,0.246-0.137,0.54-0.17,0.877C265.76,478.15,265.745,478.564,265.745,479.051"/>
				<path style="fill:#666666;" d="M273.195,478.492h-3.171c0.006,0.368,0.077,0.694,0.222,0.975
					c0.146,0.278,0.337,0.491,0.578,0.635c0.24,0.143,0.502,0.213,0.793,0.213c0.193,0,0.37-0.021,0.53-0.069
					c0.159-0.044,0.315-0.116,0.466-0.213c0.151-0.096,0.287-0.199,0.415-0.313c0.127-0.109,0.292-0.261,0.494-0.45
					c0.084-0.07,0.202-0.108,0.355-0.108c0.167,0,0.301,0.047,0.405,0.139c0.103,0.093,0.152,0.22,0.152,0.386
					c0,0.148-0.056,0.317-0.167,0.513c-0.118,0.198-0.29,0.385-0.522,0.566c-0.234,0.178-0.524,0.329-0.874,0.445
					c-0.35,0.119-0.754,0.18-1.207,0.18c-1.044,0-1.853-0.296-2.43-0.89c-0.577-0.595-0.869-1.4-0.869-2.417
					c0-0.48,0.073-0.924,0.217-1.334c0.141-0.411,0.349-0.76,0.625-1.055c0.271-0.294,0.605-0.518,1.008-0.674
					c0.398-0.156,0.841-0.234,1.329-0.234c0.632,0,1.176,0.134,1.63,0.403c0.452,0.265,0.796,0.61,1.018,1.034
					c0.226,0.426,0.339,0.855,0.339,1.297c0,0.405-0.118,0.669-0.351,0.791C273.947,478.432,273.619,478.492,273.195,478.492
					 M270.024,477.571h2.939c-0.039-0.554-0.186-0.969-0.446-1.242c-0.262-0.276-0.6-0.412-1.025-0.412
					c-0.403,0-0.735,0.137-0.995,0.418C270.237,476.614,270.079,477.025,270.024,477.571"/>
				<path style="fill:#666666;" d="M279.938,478.492h-3.171c0.004,0.368,0.078,0.694,0.222,0.975
					c0.145,0.278,0.337,0.491,0.576,0.635c0.239,0.143,0.503,0.213,0.794,0.213c0.192,0,0.371-0.021,0.528-0.069
					c0.162-0.044,0.316-0.116,0.469-0.213c0.151-0.096,0.287-0.199,0.415-0.313c0.124-0.109,0.29-0.261,0.492-0.45
					c0.085-0.07,0.204-0.108,0.355-0.108c0.168,0,0.302,0.047,0.406,0.139c0.104,0.093,0.15,0.22,0.15,0.386
					c0,0.148-0.054,0.317-0.171,0.513c-0.11,0.198-0.284,0.385-0.519,0.566c-0.231,0.178-0.525,0.329-0.872,0.445
					c-0.349,0.119-0.755,0.18-1.209,0.18c-1.042,0-1.85-0.296-2.43-0.89c-0.577-0.595-0.868-1.4-0.868-2.417
					c0-0.48,0.073-0.924,0.218-1.334c0.142-0.411,0.349-0.76,0.622-1.055c0.272-0.294,0.608-0.518,1.009-0.674
					c0.399-0.156,0.845-0.234,1.331-0.234c0.631,0,1.174,0.134,1.633,0.403c0.45,0.265,0.791,0.61,1.014,1.034
					c0.225,0.426,0.341,0.855,0.341,1.297c0,0.405-0.12,0.669-0.352,0.791C280.688,478.432,280.36,478.492,279.938,478.492
					 M276.767,477.571h2.938c-0.04-0.554-0.189-0.969-0.446-1.242c-0.264-0.276-0.602-0.412-1.027-0.412
					c-0.403,0-0.734,0.137-0.995,0.418C276.978,476.614,276.819,477.025,276.767,477.571"/>
				<path style="fill:#666666;" d="M283.487,475.71v0.194c0.304-0.376,0.621-0.651,0.953-0.828c0.324-0.178,0.698-0.267,1.113-0.267
					c0.497,0,0.96,0.13,1.38,0.386c0.419,0.259,0.749,0.635,0.993,1.129c0.243,0.497,0.366,1.081,0.366,1.759
					c0,0.497-0.07,0.957-0.21,1.376c-0.14,0.417-0.336,0.767-0.581,1.05c-0.245,0.281-0.534,0.501-0.868,0.653
					c-0.339,0.15-0.694,0.227-1.08,0.227c-0.461,0-0.852-0.093-1.165-0.28c-0.315-0.183-0.614-0.458-0.901-0.815v2.433
					c0,0.71-0.26,1.068-0.777,1.068c-0.307,0-0.505-0.091-0.608-0.274c-0.095-0.186-0.145-0.452-0.145-0.807v-6.996
					c0-0.31,0.066-0.537,0.2-0.692c0.134-0.149,0.319-0.227,0.553-0.227c0.23,0,0.416,0.078,0.56,0.234
					C283.417,475.19,283.487,475.413,283.487,475.71 M286.665,478.065c0-0.428-0.066-0.796-0.196-1.102
					c-0.131-0.308-0.313-0.542-0.542-0.705c-0.229-0.164-0.488-0.248-0.77-0.248c-0.446,0-0.824,0.178-1.131,0.527
					c-0.308,0.354-0.462,0.873-0.462,1.559c0,0.642,0.152,1.146,0.46,1.504c0.304,0.358,0.679,0.536,1.133,0.536
					c0.268,0,0.519-0.078,0.748-0.232c0.231-0.158,0.415-0.392,0.552-0.704C286.596,478.886,286.665,478.507,286.665,478.065"/>
				<path style="fill:#666666;" d="M289.925,474.044c-0.227,0-0.418-0.071-0.577-0.21c-0.162-0.139-0.242-0.332-0.242-0.585
					c0-0.23,0.082-0.419,0.248-0.569c0.164-0.146,0.355-0.222,0.571-0.222c0.212,0,0.397,0.066,0.559,0.199
					c0.162,0.137,0.244,0.334,0.244,0.592c0,0.25-0.079,0.444-0.236,0.585C290.333,473.973,290.145,474.044,289.925,474.044
					 M290.727,475.718v4.689c0,0.322-0.077,0.568-0.231,0.732c-0.156,0.169-0.351,0.251-0.588,0.251
					c-0.238,0-0.429-0.084-0.58-0.254c-0.147-0.173-0.223-0.416-0.223-0.729v-4.642c0-0.319,0.076-0.559,0.223-0.722
					c0.151-0.166,0.342-0.245,0.58-0.245c0.237,0,0.432,0.079,0.588,0.245C290.65,475.205,290.727,475.432,290.727,475.718"/>
				<path style="fill:#666666;" d="M295.952,480.649l-1.428-2.354l-0.88,0.83v1.291c0,0.311-0.083,0.551-0.248,0.719
					c-0.16,0.17-0.353,0.254-0.566,0.254c-0.249,0-0.446-0.082-0.588-0.251c-0.142-0.164-0.215-0.41-0.215-0.733v-6.915
					c0-0.357,0.071-0.631,0.207-0.82c0.14-0.19,0.341-0.283,0.596-0.283c0.25,0,0.445,0.086,0.594,0.258
					c0.146,0.169,0.221,0.421,0.221,0.751v3.933l1.822-1.914c0.227-0.234,0.396-0.4,0.517-0.486c0.119-0.086,0.263-0.13,0.432-0.13
					c0.203,0,0.371,0.064,0.51,0.193c0.132,0.129,0.2,0.291,0.2,0.483c0,0.236-0.222,0.555-0.659,0.95l-0.861,0.79l1.662,2.613
					c0.121,0.196,0.212,0.341,0.265,0.441c0.053,0.1,0.082,0.2,0.082,0.289c0,0.258-0.072,0.459-0.213,0.609
					c-0.141,0.148-0.328,0.222-0.555,0.222c-0.197,0-0.352-0.051-0.458-0.16C296.281,481.121,296.134,480.927,295.952,480.649"/>
				<path style="fill:#666666;" d="M299.475,481.39c-0.245,0-0.455-0.079-0.634-0.238c-0.178-0.156-0.268-0.379-0.268-0.665
					c0-0.241,0.086-0.449,0.256-0.622c0.172-0.175,0.38-0.262,0.63-0.262c0.249,0,0.46,0.087,0.64,0.257
					c0.174,0.173,0.264,0.383,0.264,0.627c0,0.282-0.09,0.504-0.264,0.662C299.919,481.31,299.711,481.39,299.475,481.39"/>
				<path style="fill:#666666;" d="M307.536,479.383c0,0.2-0.061,0.418-0.182,0.646c-0.12,0.231-0.306,0.449-0.554,0.656
					c-0.247,0.207-0.558,0.377-0.935,0.502c-0.376,0.127-0.801,0.191-1.27,0.191c-1.004,0-1.786-0.293-2.349-0.875
					c-0.559-0.585-0.841-1.369-0.841-2.351c0-0.667,0.128-1.253,0.387-1.765c0.255-0.509,0.628-0.904,1.113-1.184
					c0.487-0.28,1.073-0.419,1.747-0.419c0.421,0,0.805,0.062,1.157,0.185c0.351,0.122,0.646,0.282,0.891,0.475
					c0.242,0.196,0.429,0.402,0.556,0.62c0.13,0.22,0.192,0.425,0.192,0.617c0,0.191-0.07,0.357-0.214,0.491
					c-0.147,0.135-0.322,0.203-0.524,0.203c-0.137,0-0.248-0.035-0.338-0.104c-0.09-0.07-0.19-0.182-0.3-0.339
					c-0.198-0.3-0.403-0.526-0.622-0.675c-0.214-0.152-0.487-0.227-0.821-0.227c-0.476,0-0.864,0.186-1.158,0.561
					c-0.292,0.372-0.439,0.887-0.439,1.533c0,0.306,0.039,0.587,0.114,0.843c0.073,0.254,0.182,0.472,0.325,0.652
					c0.145,0.18,0.315,0.316,0.517,0.409c0.202,0.096,0.426,0.141,0.665,0.141c0.325,0,0.603-0.075,0.835-0.226
					c0.235-0.15,0.439-0.379,0.616-0.689c0.1-0.183,0.205-0.324,0.318-0.428c0.114-0.102,0.256-0.155,0.422-0.155
					c0.198,0,0.363,0.077,0.492,0.227C307.47,479.052,307.536,479.214,307.536,479.383"/>
				<path style="fill:#666666;" d="M314.53,478.095c0,0.482-0.076,0.928-0.223,1.337c-0.154,0.408-0.37,0.758-0.656,1.05
					c-0.284,0.293-0.626,0.518-1.02,0.675c-0.399,0.154-0.844,0.234-1.337,0.234c-0.49,0-0.933-0.08-1.325-0.239
					c-0.39-0.156-0.732-0.384-1.017-0.677c-0.288-0.298-0.505-0.647-0.657-1.048c-0.144-0.402-0.219-0.847-0.219-1.332
					c0-0.491,0.077-0.94,0.224-1.349c0.151-0.408,0.368-0.757,0.649-1.045c0.282-0.289,0.621-0.512,1.02-0.669
					c0.401-0.156,0.843-0.234,1.325-0.234c0.49,0,0.936,0.078,1.337,0.239c0.398,0.156,0.739,0.384,1.027,0.674
					c0.286,0.297,0.502,0.644,0.649,1.045C314.455,477.163,314.53,477.606,314.53,478.095 M312.902,478.095
					c0-0.661-0.146-1.175-0.435-1.543c-0.29-0.372-0.682-0.555-1.172-0.555c-0.317,0-0.597,0.083-0.839,0.246
					c-0.242,0.164-0.426,0.406-0.556,0.728c-0.131,0.321-0.197,0.696-0.197,1.124c0,0.425,0.064,0.793,0.193,1.108
					c0.13,0.319,0.314,0.561,0.553,0.729c0.241,0.166,0.522,0.252,0.846,0.252c0.49,0,0.882-0.185,1.172-0.557
					C312.756,479.259,312.902,478.746,312.902,478.095"/>
				<path style="fill:#666666;" d="M320.712,478.214v2.154c0,0.342-0.075,0.595-0.23,0.768c-0.156,0.17-0.357,0.255-0.61,0.255
					c-0.246,0-0.446-0.085-0.595-0.255c-0.155-0.173-0.233-0.426-0.233-0.768v-2.582c0-0.408-0.014-0.727-0.04-0.952
					c-0.028-0.222-0.105-0.41-0.227-0.552c-0.123-0.147-0.318-0.22-0.582-0.22c-0.531,0-0.879,0.181-1.048,0.55
					c-0.167,0.36-0.254,0.884-0.254,1.567v2.189c0,0.336-0.076,0.591-0.226,0.765c-0.155,0.171-0.354,0.258-0.603,0.258
					c-0.248,0-0.448-0.087-0.604-0.258c-0.157-0.174-0.235-0.429-0.235-0.765v-4.637c0-0.306,0.069-0.538,0.21-0.694
					c0.143-0.161,0.328-0.239,0.556-0.239c0.223,0,0.407,0.077,0.558,0.223c0.147,0.148,0.221,0.353,0.221,0.615v0.153
					c0.283-0.335,0.585-0.583,0.903-0.738c0.323-0.162,0.676-0.241,1.07-0.241c0.407,0,0.757,0.082,1.049,0.243
					c0.293,0.163,0.533,0.41,0.725,0.736c0.275-0.331,0.568-0.577,0.882-0.738c0.313-0.16,0.658-0.241,1.039-0.241
					c0.44,0,0.825,0.089,1.146,0.262c0.319,0.174,0.559,0.425,0.718,0.747c0.138,0.296,0.206,0.756,0.206,1.386v3.164
					c0,0.342-0.076,0.595-0.23,0.768c-0.154,0.17-0.359,0.255-0.612,0.255c-0.246,0-0.446-0.087-0.603-0.258
					c-0.156-0.174-0.235-0.429-0.235-0.765v-2.726c0-0.35-0.015-0.627-0.044-0.837c-0.029-0.21-0.11-0.387-0.238-0.528
					c-0.133-0.143-0.332-0.215-0.596-0.215c-0.214,0-0.417,0.066-0.609,0.191c-0.191,0.124-0.342,0.298-0.45,0.508
					C320.773,477.036,320.712,477.521,320.712,478.214"/>
			</g>
			<g>
				<path style="fill:#666666;" d="M245.272,477.703c-0.002-0.004-0.002-0.007-0.002-0.012
					C245.27,477.696,245.27,477.699,245.272,477.703z"/>
				<path style="fill:#666666;" d="M245.354,478.221c0.001,0,0.001,0,0.001,0c-0.031-0.147-0.055-0.294-0.074-0.439
					C245.3,477.928,245.324,478.075,245.354,478.221z"/>
				<path style="fill:#666666;" d="M245.89,479.725c-0.003-0.006-0.007-0.014-0.011-0.021
					C245.883,479.711,245.887,479.719,245.89,479.725z"/>
				<path style="fill:#666666;" d="M245.839,479.625c-0.014-0.027-0.027-0.057-0.041-0.084
					C245.811,479.57,245.825,479.598,245.839,479.625z"/>
				<path style="fill:#666666;" d="M245.504,478.8c0.079,0.251,0.175,0.493,0.286,0.725c-0.113-0.236-0.206-0.48-0.283-0.725
					C245.506,478.8,245.505,478.8,245.504,478.8z"/>
				<path style="fill:#666666;" d="M251.545,471.492c0.314,0,0.545,0.025,0.81,0.069l0.075-0.477c0,0-0.731-0.225-1.694-0.146
					l-0.076-0.259c0.299-0.063,0.523-0.329,0.523-0.646c0-0.364-0.296-0.659-0.661-0.659c-0.364,0-0.66,0.295-0.66,0.659
					c0,0.317,0.224,0.583,0.522,0.646l0.083,0.289c-1.021,0.141-1.834,0.539-1.834,0.539l0.144,0.44
					c0.618-0.206,1.154-0.331,1.64-0.383C250.895,471.515,251.253,471.492,251.545,471.492z"/>
				<path style="fill:#666666;" d="M245.878,473.904l0.004-0.005c0.024-0.031,0.047-0.061,0.07-0.09l-0.195-0.141l-0.305-0.223
					c-0.017,0.023-0.497,0.465-0.876,1.279c-0.016-0.025-0.035-0.05-0.056-0.074c-0.114-0.124-0.272-0.188-0.474-0.184
					c-0.002,0-0.006,0-0.009,0c-0.124,0-0.21-0.041-0.267-0.092c0.056-0.071,0.089-0.16,0.089-0.259
					c0-0.229-0.188-0.418-0.419-0.418c-0.23,0-0.417,0.189-0.417,0.418c0,0.231,0.188,0.418,0.417,0.418
					c0.037,0,0.071-0.006,0.105-0.013c0.103,0.114,0.266,0.214,0.505,0.209c0.123-0.001,0.213,0.03,0.273,0.097
					c0.069,0.076,0.093,0.186,0.1,0.268c0,0.001,0,0.003-0.002,0.003c-0.272,0.744-0.194,1.669-0.194,1.669l0.661,0.026
					c0.014-0.337,0.062-0.927,0.232-1.394C245.449,474.494,245.861,473.928,245.878,473.904z"/>
				<path style="fill:#666666;" d="M257.295,472.045c-0.23,0-0.418,0.187-0.418,0.418c0,0.036,0.005,0.07,0.015,0.104
					c-0.115,0.103-0.215,0.267-0.211,0.506c0.002,0.124-0.03,0.213-0.097,0.273c-0.053,0.047-0.119,0.071-0.185,0.088
					c-0.492-0.689-1.098-1.11-1.098-1.11l-0.474,0.509c0.358,0.326,0.725,0.734,1.08,1.244c0.246,0.352,0.499,0.806,0.71,1.259
					l0.64-0.304c0,0-0.292-0.723-0.703-1.37c0.071-0.024,0.143-0.063,0.207-0.12c0.125-0.112,0.186-0.272,0.183-0.474
					c-0.001-0.13,0.042-0.218,0.093-0.275c0.071,0.054,0.161,0.089,0.258,0.089c0.232,0,0.419-0.188,0.419-0.418
					C257.714,472.231,257.526,472.045,257.295,472.045z"/>
				<path style="fill:#666666;" d="M255.634,477.796c-0.881,0.43-2.33,0.996-4.238,1.263c-0.748,0.104-1.474,0.142-2.142,0.142
					c-0.869,0-1.638-0.064-2.227-0.139c-0.672-0.085-1.198-0.189-1.52-0.262c0.077,0.245,0.17,0.488,0.283,0.725
					c0.002,0.006,0.005,0.013,0.008,0.017c0.014,0.027,0.027,0.057,0.041,0.084c0.014,0.027,0.027,0.054,0.04,0.079
					c0.004,0.007,0.007,0.015,0.011,0.021c0.189,0.356,0.417,0.685,0.675,0.968c0.9,0.985,1.817,1.141,1.826,1.142l0.014,0.002
					l0.014,0.005c0.008,0.003,0.821,0.266,2.057,0.266c1.215,0,2.409-0.245,3.546-0.729c0.842-0.431,1.639-1.085,2.033-1.669
					c0.306-0.451,0.525-0.933,0.656-1.434c0.069-0.266,0.125-0.692,0.092-1.141C256.557,477.301,256.164,477.538,255.634,477.796z"
					/>
				<path style="fill:#666666;" d="M246.161,474.112c-0.025,0.038-0.408,0.578-0.709,1.408c-0.226,0.622-0.216,1.527-0.216,1.538
					v0.001c0,0.213,0.012,0.424,0.035,0.632c0,0.005,0,0.008,0.002,0.012c0.002,0.026,0.007,0.052,0.009,0.079
					c0.019,0.145,0.043,0.291,0.074,0.439c0.438,0.111,3.049,0.721,5.968,0.314c1.829-0.254,3.219-0.795,4.062-1.204
					c0.701-0.34,1.151-0.648,1.325-0.773c-0.173-0.643-0.651-1.65-1.089-2.279c-1.254-1.791-2.605-2.25-3.299-2.364
					c-0.265-0.044-0.477-0.068-0.777-0.068c-0.279,0-0.626,0.022-1.089,0.071c-0.465,0.048-0.983,0.17-1.583,0.372
					c-0.842,0.282-1.604,0.725-2.204,1.28l-0.021,0.019C246.56,473.669,246.374,473.841,246.161,474.112z M253.829,473.695
					c0.601,0,1.09,0.488,1.09,1.09c0,0.602-0.489,1.09-1.09,1.09c-0.601,0-1.089-0.488-1.089-1.09
					C252.74,474.184,253.229,473.695,253.829,473.695z M248.678,473.652c0.973,0,1.761,0.789,1.761,1.761
					c0,0.973-0.788,1.759-1.761,1.759c-0.972,0-1.76-0.786-1.76-1.759C246.918,474.441,247.706,473.652,248.678,473.652z"/>
			</g>
		</g>
	</g>
</g>
</svg>
